<svg xmlns="http://www.w3.org/2000/svg" width="95" height="70" viewBox="0 0 95 70"><defs><linearGradient id="a" x1="100%" x2="0%" y1="100%" y2="0%"><stop offset="0%" stop-color="#FFF"/><stop offset="100%" stop-color="#FFF" stop-opacity="0"/></linearGradient></defs><g fill="none" fill-rule="evenodd"><path fill="url(#a)" d="M69.218 33.857v19.171a2.561 2.561 0 01-3.206 2.479L15.326 42.31A20.488 20.488 0 010 22.485V3.313A2.561 2.561 0 013.206.835L53.892 14.03a20.488 20.488 0 0115.326 19.827z" opacity=".2" transform="matrix(-1 0 0 1 69.218 0)"/><path stroke="url(#a)" stroke-width=".854" d="M94 47.516v19.17a2.561 2.561 0 01-3.206 2.48L40.108 55.97a20.488 20.488 0 01-15.326-19.827V16.972a2.561 2.561 0 013.206-2.479L78.674 27.69A20.488 20.488 0 0194 47.516z" transform="matrix(-1 0 0 1 118.782 0)"/></g></svg>