<svg width="30" height="30" viewBox="0 0 30 30" fill="none" xmlns="http://www.w3.org/2000/svg"><path clip-rule="evenodd" d="M15.57 6.725a7.53 7.53 0 01-.51-4.854l11.39 7.976a7.529 7.529 0 01-4.735 1.179l-3.305 4.72a7.495 7.495 0 01-.653 7.47L5.47 14.612a7.491 7.491 0 016.797-3.17l3.304-4.717zm8.58 2.92l-8.112-5.68c.05.782.246 1.556.579 2.273l.28.603-.381.545-3.685 5.263-.663-.057a6.362 6.362 0 00-5.004 1.798l10.222 7.158a6.378 6.378 0 00-.022-5.316l-.28-.604L21.15 9.82l.663.057a6.384 6.384 0 002.337-.231zM11.615 21.203l-3.893 3.27 1.74-4.777-.977-.685L5.16 28.13l7.432-6.24-.979-.686zm2.283-8.211l3.687-5.266c.254.29.535.56.845.805l-3.487 4.98a6.34 6.34 0 00-1.045-.52z"/></svg>