<svg xmlns="http://www.w3.org/2000/svg" width="16" height="16" viewBox="0 0 16 16"><path d="M14.923 14.553l-4.078-4.085c1.04-1.005 1.684-2.39 1.684-3.917C12.53 3.49 9.944 1 6.765 1 3.585 1 1 3.49 1 6.55c0 3.062 2.586 5.551 5.765 5.551 1.395 0 2.676-.48 3.674-1.277l4.089 4.095a.278.278 0 00.198.081.28.28 0 00.19-.074.258.258 0 00.007-.373zm-8.158-2.98c-2.876 0-5.216-2.253-5.216-5.022 0-2.77 2.34-5.022 5.216-5.022 2.876 0 5.215 2.252 5.215 5.022 0 2.769-2.34 5.022-5.215 5.022z" fill="#282846" stroke="#282846" stroke-width=".875" opacity=".4"/></svg>