<svg width="14" height="12" viewBox="0 0 14 12" xmlns="http://www.w3.org/2000/svg"><path d="M13.877 10.68L7.735.429a.857.857 0 00-1.47 0L.123 10.68a.868.868 0 00-.012.87.857.857 0 00.747.439h12.284c.31 0 .595-.168.747-.439a.868.868 0 00-.012-.87zM7.005 3.558c.352 0 .65.2.65.555 0 1.083-.126 2.64-.126 3.724 0 .282-.307.4-.524.4-.29 0-.534-.118-.534-.4 0-1.084-.127-2.64-.127-3.724 0-.355.29-.555.66-.555zm.009 6.71a.699.699 0 01-.697-.701c0-.383.299-.701.697-.701.37 0 .687.318.687.7a.71.71 0 01-.687.702z" fill="#F79F1F"/></svg>